<?xml version="1.0" encoding="UTF-8" standalone="no"?>
<!DOCTYPE svg PUBLIC "-//W3C//DTD SVG 1.1//EN" "http://www.w3.org/Graphics/SVG/1.1/DTD/svg11.dtd">
<svg width="100%" height="100%" viewBox="0 0 128 122" version="1.1" xmlns="http://www.w3.org/2000/svg" xmlns:xlink="http://www.w3.org/1999/xlink" xml:space="preserve" xmlns:serif="http://www.serif.com/" style="fill-rule:evenodd;clip-rule:evenodd;stroke-linejoin:round;stroke-miterlimit:2;">
    <g transform="matrix(1,0,0,1,-440,-446.759082)">
        <path d="M506.9,477.6C503.1,477.6 499.4,478.1 495.9,479C493.1,466.3 481.8,456.9 468.3,456.9C454.8,456.9 440,469.6 440,485.2C440,500.8 449.7,510.3 462.6,513C461.8,516.3 461.4,519.7 461.4,523.2C461.4,548.3 481.8,568.7 506.9,568.7C532,568.7 552.4,548.3 552.4,523.2C552.4,498.1 532,477.7 506.9,477.7L506.9,477.6ZM466.5,495.5C457.7,496.5 449.7,488.7 453.8,480.3C458.2,471.4 463.2,466.9 470.8,463.3C479.3,459.3 487.8,470.9 487.8,480.3C487.8,489.7 487.8,481.4 487.7,481.9C486.5,488.6 478.5,492.7 471.5,494.6C469.7,495.1 468,495.4 466.5,495.6L466.5,495.5ZM511.9,562.6C498.4,567.5 483.9,559.3 477.7,544.9C471,529.5 470.3,508.2 488.4,509.3C500.4,510 520.9,519.5 526.7,527.1C536.2,539.4 525.4,557.7 511.9,562.6Z" style="fill-rule:nonzero;"/>
    </g>
    <g transform="matrix(0.973179,-0.23005,0.23005,0.973179,-531.5,-307.559082)">
        <circle cx="552.2" cy="462.6" r="15.6"/>
    </g>
</svg>
