<?xml version="1.0" encoding="UTF-8" standalone="no"?>
<!DOCTYPE svg PUBLIC "-//W3C//DTD SVG 1.1//EN" "http://www.w3.org/Graphics/SVG/1.1/DTD/svg11.dtd">
<svg width="100%" height="100%" viewBox="0 0 379 122" version="1.1" xmlns="http://www.w3.org/2000/svg" xmlns:xlink="http://www.w3.org/1999/xlink" xml:space="preserve" xmlns:serif="http://www.serif.com/" style="fill-rule:evenodd;clip-rule:evenodd;stroke-linejoin:round;stroke-miterlimit:2;">
    <g transform="matrix(1,0,0,1,-440,-446.759082)">
        <path d="M811.1,522.1L809,515.3C809,515.1 808.8,515 808.7,515L792,515C791.9,515 791.8,515 791.7,515.3L789.6,522.1C789.5,522.5 789.2,522.7 788.8,522.7L782.5,522.7C782.2,522.7 782.1,522.7 781.9,522.5C781.8,522.4 781.8,522.1 781.9,521.8L795.6,479.1C795.7,478.7 796,478.5 796.4,478.5L804.3,478.5C804.7,478.5 805,478.7 805.1,479.1L818.9,521.8L818.9,522.1C818.9,522.5 818.7,522.7 818.2,522.7L811.9,522.7C811.5,522.7 811.2,522.5 811.1,522.1ZM793.9,509.4L806.7,509.4C807,509.4 807,509.3 807,509L800.5,487.8C800.5,487.6 800.4,487.5 800.3,487.5C800.2,487.5 800.2,487.5 800.1,487.8L793.7,509C793.7,509.3 793.7,509.4 794,509.4L793.9,509.4Z" style="fill:rgb(29,29,27);fill-rule:nonzero;"/>
    </g>
    <g transform="matrix(1,0,0,1,-440,-446.759082)">
        <path d="M621.5,521.7C619.1,520.6 617.2,519.2 615.8,517.3C614.4,515.4 613.8,513.2 613.8,510.6L613.8,509C613.8,508.8 613.8,508.6 614,508.5C614.1,508.4 614.3,508.3 614.5,508.3L620.1,508.3C620.3,508.3 620.5,508.3 620.6,508.5C620.7,508.6 620.8,508.8 620.8,509L620.8,510.2C620.8,512.1 621.7,513.8 623.4,515C625.1,516.3 627.5,516.9 630.5,516.9C633.5,516.9 635,516.4 636.3,515.3C637.6,514.2 638.3,512.8 638.3,511.1C638.3,509.4 637.9,508.9 637.2,508.1C636.5,507.3 635.5,506.5 634.1,505.9C632.8,505.2 630.8,504.4 628.1,503.4C625.1,502.3 622.7,501.3 620.8,500.3C618.9,499.3 617.4,498 616.2,496.3C615,494.6 614.3,492.6 614.3,490.1C614.3,486.4 615.6,483.5 618.3,481.3C621,479.2 624.6,478.1 629.1,478.1C633.6,478.1 635.1,478.6 637.5,479.7C639.9,480.8 641.8,482.3 643.2,484.3C644.5,486.3 645.2,488.5 645.2,491.1L645.2,492.2C645.2,492.4 645.2,492.6 645,492.7C644.9,492.8 644.7,492.9 644.5,492.9L638.8,492.9C638.6,492.9 638.4,492.9 638.3,492.7C638.2,492.6 638.1,492.4 638.1,492.2L638.1,491.5C638.1,489.5 637.3,487.8 635.7,486.5C634.1,485.1 631.8,484.4 629,484.4C626.2,484.4 624.9,484.9 623.6,485.9C622.3,486.9 621.7,488.2 621.7,490C621.7,491.8 622,492.3 622.7,493.1C623.4,493.9 624.4,494.6 625.7,495.3C627,496 629.1,496.8 632,497.8C635,498.9 637.4,500 639.2,500.9C641,501.8 642.5,503.1 643.8,504.8C645.1,506.5 645.7,508.5 645.7,511C645.7,514.8 644.3,517.8 641.5,520C638.7,522.2 634.9,523.4 630,523.4C625.1,523.4 623.8,522.9 621.4,521.8L621.5,521.7Z" style="fill:rgb(29,29,27);fill-rule:nonzero;"/>
    </g>
    <g transform="matrix(1,0,0,1,-440,-446.759082)">
        <path d="M681.5,480.1C683.5,481.2 685.1,482.7 686.2,484.7C687.3,486.7 687.9,489 687.9,491.6C687.9,494.2 687.3,496.4 686.2,498.4C685.1,500.4 683.4,501.9 681.4,503C679.3,504.1 676.9,504.6 674.2,504.6L664.1,504.6C663.9,504.6 663.8,504.7 663.8,504.9L663.8,521.9C663.8,522.1 663.8,522.3 663.6,522.4C663.4,522.5 663.3,522.6 663.1,522.6L657.3,522.6C657.1,522.6 656.9,522.6 656.8,522.4C656.7,522.3 656.6,522.1 656.6,521.9L656.6,479.1C656.6,478.9 656.6,478.7 656.8,478.6C656.9,478.5 657.1,478.4 657.3,478.4L674.7,478.4C677.4,478.4 679.7,478.9 681.7,480L681.5,480.1ZM678.6,496.9C679.9,495.6 680.6,494 680.6,491.9C680.6,489.8 679.9,488.1 678.6,486.8C677.3,485.5 675.6,484.8 673.4,484.8L664,484.8C663.8,484.8 663.7,484.9 663.7,485.1L663.7,498.4C663.7,498.6 663.8,498.7 664,498.7L673.4,498.7C675.5,498.7 677.3,498.1 678.6,496.8L678.6,496.9Z" style="fill:rgb(29,29,27);fill-rule:nonzero;"/>
    </g>
    <g transform="matrix(1,0,0,1,-440,-446.759082)">
        <path d="M704.5,521.5C702.1,520.2 700.2,518.4 698.8,516C697.5,513.6 696.8,510.9 696.8,507.8L696.8,493.4C696.8,490.4 697.5,487.7 698.8,485.3C700.1,483 702,481.1 704.5,479.9C706.9,478.6 709.7,478 712.9,478C716.1,478 718.9,478.6 721.3,479.9C723.7,481.2 725.6,483 727,485.3C728.3,487.6 729,490.3 729,493.4L729,507.8C729,510.9 728.3,513.6 727,516C725.7,518.4 723.8,520.2 721.3,521.5C718.9,522.8 716.1,523.4 712.9,523.4C709.7,523.4 706.9,522.8 704.5,521.5ZM719.3,514.6C720.9,513 721.7,510.8 721.7,508.1L721.7,493.4C721.7,490.7 720.9,488.5 719.3,486.8C717.7,485.2 715.6,484.3 712.9,484.3C710.2,484.3 708.2,485.1 706.6,486.8C705,488.5 704.2,490.6 704.2,493.4L704.2,508.1C704.2,510.8 705,513 706.6,514.6C708.2,516.2 710.3,517.1 712.9,517.1C715.5,517.1 717.7,516.3 719.3,514.6Z" style="fill:rgb(29,29,27);fill-rule:nonzero;"/>
    </g>
    <g transform="matrix(1,0,0,1,-440,-446.759082)">
        <path d="M764.7,522.2L756.4,504C756.4,503.8 756.2,503.7 756,503.7L748.4,503.7C748.2,503.7 748.1,503.8 748.1,504L748.1,522C748.1,522.2 748.1,522.4 747.9,522.5C747.7,522.6 747.6,522.7 747.4,522.7L741.6,522.7C741.4,522.7 741.2,522.7 741.1,522.5C741,522.4 740.9,522.2 740.9,522L740.9,479.3C740.9,479.1 740.9,478.9 741.1,478.8C741.2,478.7 741.4,478.6 741.6,478.6L759,478.6C761.6,478.6 763.8,479.1 765.8,480.2C767.8,481.3 769.3,482.8 770.4,484.8C771.5,486.8 772,489 772,491.5C772,494 771.3,496.9 769.8,498.9C768.3,500.9 766.2,502.4 763.6,503.2C763.6,503.2 763.5,503.2 763.4,503.3L763.4,503.6L772.3,522C772.3,522.2 772.4,522.3 772.4,522.4C772.4,522.7 772.2,522.9 771.7,522.9L765.6,522.9C765.2,522.9 764.9,522.7 764.7,522.3L764.7,522.2ZM748,485.2L748,497.8C748,498 748.1,498.1 748.3,498.1L757.8,498.1C759.8,498.1 761.5,497.5 762.7,496.3C763.9,495.1 764.6,493.5 764.6,491.5C764.6,489.5 764,487.9 762.7,486.7C761.5,485.5 759.8,484.9 757.8,484.9L748.3,484.9C748.1,484.9 748,485 748,485.2Z" style="fill:rgb(29,29,27);fill-rule:nonzero;"/>
    </g>
    <g transform="matrix(1,0,0,1,-440,-446.759082)">
        <path d="M506.9,477.6C503.1,477.6 499.4,478.1 495.9,479C493.1,466.3 481.8,456.9 468.3,456.9C454.8,456.9 440,469.6 440,485.2C440,500.8 449.7,510.3 462.6,513C461.8,516.3 461.4,519.7 461.4,523.2C461.4,548.3 481.8,568.7 506.9,568.7C532,568.7 552.4,548.3 552.4,523.2C552.4,498.1 532,477.7 506.9,477.7L506.9,477.6ZM466.5,495.5C457.7,496.5 449.7,488.7 453.8,480.3C458.2,471.4 463.2,466.9 470.8,463.3C479.3,459.3 487.8,470.9 487.8,480.3C487.8,489.7 487.8,481.4 487.7,481.9C486.5,488.6 478.5,492.7 471.5,494.6C469.7,495.1 468,495.4 466.5,495.6L466.5,495.5ZM511.9,562.6C498.4,567.5 483.9,559.3 477.7,544.9C471,529.5 470.3,508.2 488.4,509.3C500.4,510 520.9,519.5 526.7,527.1C536.2,539.4 525.4,557.7 511.9,562.6Z" style="fill-rule:nonzero;"/>
    </g>
    <g transform="matrix(0.973179,-0.23005,0.23005,0.973179,-531.5,-307.559082)">
        <circle cx="552.2" cy="462.6" r="15.6"/>
    </g>
</svg>
